PathFileType  4	(X/Y/Z) /workspace/opencap-mono/results/ba8f9f72-c3c0-4cdb-a5f6-69ba924cb011/d44734bd-61ee-49a5-b9fc-11194914285b/MarkerData/d44734bd-61ee-49a5-b9fc-11194914285b_5
DataRate	CameraRate	NumFrames	NumMarkers	Units	OrigDataRate	OrigDataStartFrame	OrigNumFrames
60.0	60.0	5	63	m	60.0	750	1499
Frame#	Time	sternum			r_shoulder			l_shoulder			r_elbow			l_elbow			r_melbow			l_melbow			r_wrist_radius			l_wrist_radius			r_wrist_ulna			l_wrist_ulna			C7			r_ASIS			l_ASIS			r_PSIS			l_PSIS			r_knee			l_knee			r_mknee			l_mknee			r_ankle			l_ankle			r_mankle			l_mankle			r_5meta			l_5meta			r_toe			l_toe			r_pinky			l_pinky			r_index			l_index			L4			T6			r_big_toe			l_big_toe			l_calc			r_calc			Nose			Neck			RShoulder			RElbow			RWrist			LShoulder			LElbow			LWrist			MidHip			RHip			RKnee			RAnkle			LHip			LKnee			LAnkle			REye			LEye			REar			LEar			LBigToe			LSmallToe			LHeel			RBigToe			RSmallToe			RHeel			
		X1	Y1	Z1	X2	Y2	Z2	X3	Y3	Z3	X4	Y4	Z4	X5	Y5	Z5	X6	Y6	Z6	X7	Y7	Z7	X8	Y8	Z8	X9	Y9	Z9	X10	Y10	Z10	X11	Y11	Z11	X12	Y12	Z12	X13	Y13	Z13	X14	Y14	Z14	X15	Y15	Z15	X16	Y16	Z16	X17	Y17	Z17	X18	Y18	Z18	X19	Y19	Z19	X20	Y20	Z20	X21	Y21	Z21	X22	Y22	Z22	X23	Y23	Z23	X24	Y24	Z24	X25	Y25	Z25	X26	Y26	Z26	X27	Y27	Z27	X28	Y28	Z28	X29	Y29	Z29	X30	Y30	Z30	X31	Y31	Z31	X32	Y32	Z32	X33	Y33	Z33	X34	Y34	Z34	X35	Y35	Z35	X36	Y36	Z36	X37	Y37	Z37	X38	Y38	Z38	X39	Y39	Z39	X40	Y40	Z40	X41	Y41	Z41	X42	Y42	Z42	X43	Y43	Z43	X44	Y44	Z44	X45	Y45	Z45	X46	Y46	Z46	X47	Y47	Z47	X48	Y48	Z48	X49	Y49	Z49	X50	Y50	Z50	X51	Y51	Z51	X52	Y52	Z52	X53	Y53	Z53	X54	Y54	Z54	X55	Y55	Z55	X56	Y56	Z56	X57	Y57	Z57	X58	Y58	Z58	X59	Y59	Z59	X60	Y60	Z60	X61	Y61	Z61	X62	Y62	Z62	X63	Y63	Z63	

750	12.4833333	5.1127807	1.5497256	13.4074590	4.9759947	1.5304456	13.4931161	5.1737940	1.5971456	13.2658022	4.9681706	1.1878656	13.5298182	5.4273839	1.3666656	13.2311360	4.9782751	1.1869856	13.4865221	5.4044288	1.3273056	13.2424332	5.1473876	0.9975656	13.5747151	5.4491215	1.4172856	13.4893338	5.1118684	0.9809256	13.5915184	5.4887220	1.4157256	13.4781410	5.0152416	1.5663856	13.3276718	5.1225281	1.1041156	13.5300657	5.3159786	1.1211756	13.4244015	5.0842294	1.1362356	13.3442726	5.1808502	1.1378856	13.2887658	5.1285673	0.6322656	13.4986109	5.2912337	0.6569956	13.4735155	5.2034516	0.6568756	13.4156562	5.1904898	0.6815356	13.5004310	4.9863455	0.3133356	13.2138782	5.2049633	0.2429556	13.6067269	5.0308831	0.3319956	13.1826331	5.1547301	0.2527656	13.6420466	4.9983381	0.2145956	13.1550331	5.2550906	0.1897956	13.6795330	5.0630301	0.2148356	13.1393431	5.2320930	0.2061256	13.7452731	5.1435335	0.9063056	13.6265421	5.5151591	1.4387956	13.5502388	5.2024654	0.9255656	13.6012700	5.4595321	1.4494456	13.5746466	5.1310930	1.2290556	13.3341386	5.0365214	1.4361256	13.3017239	5.1047207	0.2158556	13.1191725	5.2175484	0.1942256	13.7893124	5.1500602	0.2050156	13.5724857	4.9560346	0.3589856	13.1676687	5.1442063	1.7502156	13.4252025	5.0928837	1.4891456	13.3757823	4.9761160	1.4490156	13.4908446	4.9928974	1.1896256	13.5136096	5.1300880	0.9772356	13.5727719	5.2096471	1.5292756	13.2607291	5.4144349	1.3516256	13.2487542	5.4706151	1.4013556	13.4898784	5.1866089	1.0515056	13.4143895	5.1038701	1.0489356	13.4633387	5.1584502	0.6028856	13.4636549	5.0088779	0.3248856	13.1885806	5.2693568	1.0540756	13.3654445	5.2547513	0.6315556	13.4997669	5.1686013	0.2402856	13.6215042	5.0878076	1.7706356	13.4385587	5.1140660	1.7779256	13.3778699	5.0047603	1.7140856	13.4347881	5.0630746	1.7300756	13.3086441	5.2379959	0.1834456	13.8047834	5.2765958	0.1803756	13.7335527	5.1500602	0.2050156	13.5724857	5.1181779	0.1982056	13.1142594	5.0451126	0.1691456	13.1357436	4.9509087	0.3536156	13.1537924
751	12.5000000	5.1210946	1.5512056	13.4276548	4.9824519	1.5310256	13.5126558	5.1814452	1.5983756	13.2845084	4.9740409	1.1880556	13.5481794	5.4353764	1.3699256	13.2474304	4.9861687	1.1876656	13.5054185	5.4134561	1.3301456	13.2586143	5.1499709	0.9971456	13.5993444	5.4574621	1.4175056	13.5062540	5.1137601	0.9804856	13.6145784	5.4969725	1.4172156	13.4945447	5.0230097	1.5678956	13.3490143	5.1300215	1.1045556	13.5480694	5.3221382	1.1234556	13.4409116	5.0888294	1.1371556	13.3632993	5.1849606	1.1396856	13.3069021	5.1374919	0.6349456	13.5208569	5.2988359	0.6590956	13.4897714	5.2113222	0.6576156	13.4364949	5.1984268	0.6836056	13.5171520	4.9953139	0.3044556	13.2452585	5.2047230	0.2427456	13.6074314	5.0403636	0.3230856	13.2155653	5.1545297	0.2517756	13.6427366	5.0044052	0.2091856	13.1773259	5.2553534	0.1895556	13.6796555	5.0677802	0.2101756	13.1614079	5.2322839	0.2061056	13.7453842	5.1442701	0.9054456	13.6497365	5.5244902	1.4391856	13.5662417	5.2038534	0.9249456	13.6270191	5.4695420	1.4483956	13.5919149	5.1357829	1.2312156	13.3530196	5.0444023	1.4375856	13.3226115	5.1089372	0.2153956	13.1407016	5.2178148	0.1945656	13.7894036	5.1501279	0.2047356	13.5725062	4.9668975	0.3531856	13.2032205	5.1538665	1.7502756	13.4445696	5.1001214	1.4900156	13.3953990	4.9834734	1.4496656	13.5105833	4.9992331	1.1901656	13.5329602	5.1328523	0.9768156	13.5966581	5.2167736	1.5303756	13.2802057	5.4227494	1.3543556	13.2648788	5.4794691	1.4021756	13.5062656	5.1929399	1.0529556	13.4320938	5.1107481	1.0495656	13.4819050	5.1671653	0.6041356	13.4862555	5.0183871	0.3168556	13.2204337	5.2751317	1.0563456	13.3822827	5.2624277	0.6332856	13.5156270	5.1682148	0.2393856	13.6219308	5.0982275	1.7717656	13.4588759	5.1233464	1.7785756	13.3977440	5.0142967	1.7168456	13.4566684	5.0705031	1.7319156	13.3296738	5.2382116	0.1838256	13.8049833	5.2767378	0.1802756	13.7338396	5.1501279	0.2047356	13.5725062	5.1228948	0.2000856	13.1323255	5.0512433	0.1656756	13.1502099	4.9616405	0.3495856	13.1891285
752	12.5166667	5.1292476	1.5528156	13.4473673	4.9890088	1.5318756	13.5304434	5.1897024	1.5994256	13.3029564	4.9793456	1.1889856	13.5664755	5.4445848	1.3730756	13.2630340	4.9930068	1.1884756	13.5241648	5.4233526	1.3329456	13.2741857	5.1522813	0.9978556	13.6249609	5.4649248	1.4183356	13.5226434	5.1154806	0.9816556	13.6392357	5.5044376	1.4190356	13.5110236	5.0315708	1.5688856	13.3679462	5.1375704	1.1058356	13.5676105	5.3290393	1.1251956	13.4599962	5.0950965	1.1387556	13.3835778	5.1909430	1.1416656	13.3267500	5.1431410	0.6374956	13.5471696	5.3060695	0.6609356	13.5074332	5.2169446	0.6586756	13.4624862	5.2058278	0.6853756	13.5352119	5.0076794	0.2974756	13.2770202	5.2044756	0.2424056	13.6081987	5.0527704	0.3165556	13.2480193	5.1543499	0.2507156	13.6435244	5.0152909	0.2052056	13.2037192	5.2553650	0.1890556	13.6799147	5.0776537	0.2073856	13.1869430	5.2322628	0.2057856	13.7455950	5.1443641	0.9064656	13.6754449	5.5317744	1.4390156	13.5836292	5.2045932	0.9251956	13.6545843	5.4768142	1.4466456	13.6093520	5.1425182	1.2334956	13.3732406	5.0540867	1.4383056	13.3422106	5.1181901	0.2151256	13.1657929	5.2179702	0.1946656	13.7896857	5.1501503	0.2044156	13.5726712	4.9797659	0.3475756	13.2381628	5.1623992	1.7507056	13.4650770	5.1077775	1.4910356	13.4139530	4.9904376	1.4505956	13.5285388	5.0049797	1.1911356	13.5520361	5.1351639	0.9776156	13.6219883	5.2251174	1.5314656	13.2993672	5.4322411	1.3571656	13.2803717	5.4872435	1.4035256	13.5224363	5.1998888	1.0546156	13.4516200	5.1179774	1.0508356	13.5018709	5.1729807	0.6059056	13.5132526	5.0309847	0.3105256	13.2526678	5.2817911	1.0583956	13.4013649	5.2695687	0.6346656	13.5328485	5.1678772	0.2384856	13.6225127	5.1069522	1.7725656	13.4793736	5.1320584	1.7792356	13.4182689	5.0227170	1.7182556	13.4771565	5.0789898	1.7330656	13.3503033	5.2384449	0.1842656	13.8053348	5.2768878	0.1801556	13.7342516	5.1501503	0.2044156	13.5726712	5.1324172	0.2012856	13.1558212	5.0621295	0.1638156	13.1723665	4.9742879	0.3450456	13.2241663
753	12.5333333	5.1360444	1.5542056	13.4672198	4.9942719	1.5318156	13.5486870	5.1965014	1.5997356	13.3220707	4.9838309	1.1891656	13.5839261	5.4542565	1.3770956	13.2784012	4.9985869	1.1881456	13.5418941	5.4335819	1.3365756	13.2894929	5.1557848	0.9994756	13.6501959	5.4719973	1.4186956	13.5391599	5.1185447	0.9834456	13.6636148	5.5115742	1.4203956	13.5277575	5.0389827	1.5695856	13.3859118	5.1438210	1.1088356	13.5874511	5.3350005	1.1276356	13.4793928	5.1011995	1.1411756	13.4027648	5.1972956	1.1443056	13.3458988	5.1515691	0.6399956	13.5779339	5.3131338	0.6626156	13.5249609	5.2229727	0.6618656	13.4917009	5.2123152	0.6867856	13.5527464	5.0244034	0.2961056	13.3101302	5.2039193	0.2420656	13.6087999	5.0663605	0.3180256	13.2782667	5.1536499	0.2498156	13.6441027	5.0342600	0.2044856	13.2395863	5.2550684	0.1885256	13.6800302	5.0968198	0.2072156	13.2169218	5.2319227	0.2052656	13.7455909	5.1460089	0.9082556	13.7012586	5.5384889	1.4383956	13.6009607	5.2067434	0.9271456	13.6818695	5.4830763	1.4441556	13.6269911	5.1491456	1.2357856	13.3921314	5.0623513	1.4387856	13.3612579	5.1352866	0.2113356	13.1901061	5.2179370	0.1945656	13.7897805	5.1498621	0.2040856	13.5726030	4.9902479	0.3436156	13.2723784	5.1693836	1.7504556	13.4862307	5.1145358	1.4913656	13.4323973	4.9962816	1.4506656	13.5459388	5.0100354	1.1911956	13.5698961	5.1385483	0.9791156	13.6469580	5.2327852	1.5320756	13.3188424	5.4420958	1.3609356	13.2955594	5.4946053	1.4042956	13.5387345	5.2061901	1.0566256	13.4711863	5.1243398	1.0528656	13.5215429	5.1809992	0.6089856	13.5439252	5.0445004	0.3100556	13.2844473	5.2880314	1.0603856	13.4208255	5.2759085	0.6358756	13.5497294	5.1673119	0.2381556	13.6229442	5.1138640	1.7726756	13.4999969	5.1400469	1.7796056	13.4393281	5.0291977	1.7190556	13.4964092	5.0871894	1.7345056	13.3702472	5.2385658	0.1846356	13.8055015	5.2769772	0.1799656	13.7344146	5.1498621	0.2040856	13.5726030	5.1467562	0.1952056	13.1787604	5.0769888	0.1631856	13.2063283	4.9839399	0.3400756	13.2589548
754	12.5500000	5.1426166	1.5554156	13.4855662	4.9996547	1.5317956	13.5654195	5.2030525	1.6010856	13.3404624	4.9883017	1.1895256	13.6011712	5.4621871	1.3796656	13.2957039	5.0041990	1.1878456	13.5594839	5.4414454	1.3390456	13.3066320	5.1598214	1.0025256	13.6762752	5.4763874	1.4190156	13.5572170	5.1222487	0.9864856	13.6888219	5.5160895	1.4209256	13.5463033	5.0460191	1.5705956	13.4029079	5.1491485	1.1113956	13.6070708	5.3402414	1.1294056	13.4984646	5.1063982	1.1429356	13.4219272	5.2026108	1.1462556	13.3649059	5.1617665	0.6430356	13.6079563	5.3175942	0.6638456	13.5419916	5.2312243	0.6646356	13.5202644	5.2164586	0.6878956	13.5701258	5.0385364	0.2943056	13.3456732	5.2033558	0.2417956	13.6092985	5.0784814	0.3174456	13.3122093	5.1529879	0.2486756	13.6445995	5.0518792	0.2020456	13.2786087	5.2549693	0.1881956	13.6800060	5.1148040	0.2048056	13.2540730	5.2316128	0.2047056	13.7455457	5.1487705	0.9117956	13.7283212	5.5423048	1.4373956	13.6201072	5.2099422	0.9310556	13.7105263	5.4864335	1.4423956	13.6458907	5.1549561	1.2374656	13.4107626	5.0701303	1.4395356	13.3787438	5.1524789	0.2057456	13.2254537	5.2178385	0.1941556	13.7897787	5.1497756	0.2036456	13.5723861	5.0005916	0.3388756	13.3071033	5.1770977	1.7492856	13.5070737	5.1212177	1.4923256	13.4496804	5.0023010	1.4507856	13.5622290	5.0150065	1.1913956	13.5876062	5.1426966	0.9819656	13.6728688	5.2401343	1.5338656	13.3371318	5.4498777	1.3634156	13.3126605	5.4990159	1.4047456	13.5568895	5.2116577	1.0582556	13.4905293	5.1299712	1.0545356	13.5411498	5.1909090	0.6121456	13.5740673	5.0566269	0.3082456	13.3192532	5.2933352	1.0619856	13.4399045	5.2798637	0.6366656	13.5662818	5.1667665	0.2375456	13.6232857	5.1216614	1.7720756	13.5204484	5.1490147	1.7797356	13.4603694	5.0362072	1.7198256	13.5147169	5.0963035	1.7367456	13.3896024	5.2386479	0.1847556	13.8055619	5.2772080	0.1800156	13.7345112	5.1497756	0.2036456	13.5723861	5.1625790	0.1877956	13.2145838	5.0928675	0.1605356	13.2469774	4.9941925	0.3343156	13.2939462
